<svg width="354" height="354" xmlns="http://www.w3.org/2000/svg" xmlns:xlink="http://www.w3.org/1999/xlink" xml:space="preserve" overflow="hidden"><g transform="translate(-80 -183)"><path d="M286.5 223.562C286.5 239.855 273.292 253.062 257 253.062 240.708 253.062 227.5 239.855 227.5 223.562 227.5 207.27 240.708 194.062 257 194.062 273.292 194.062 286.5 207.27 286.5 223.562Z"/><path d="M337.388 375.487 316.737 287.725C316 284.775 314.525 281.825 312.312 279.612 303.462 272.237 293.138 267.075 281.337 263.388 273.225 261.913 265.112 260.438 257 260.438 248.887 260.438 240.775 261.913 232.663 264.125 220.863 267.075 210.538 272.975 201.688 280.35 199.475 282.562 198 285.513 197.262 288.462L176.613 376.225C176.613 376.962 175.875 378.438 175.875 379.913 175.875 388.025 182.512 394.663 190.625 394.663 197.262 394.663 203.163 389.5 204.637 383.6L220.125 319.438 220.125 525.938 249.625 525.938 249.625 393.188 264.375 393.188 264.375 525.938 293.875 525.938 293.875 318.7 309.362 382.862C310.837 388.763 316.737 393.925 323.375 393.925 331.487 393.925 338.125 387.288 338.125 379.175 338.125 377.7 337.388 376.225 337.388 375.487Z"/></g></svg>